<?xml version="1.0" encoding="UTF-8"?>
<svg id="Layer_2" data-name="Layer 2" xmlns="http://www.w3.org/2000/svg" xmlns:xlink="http://www.w3.org/1999/xlink" viewBox="0 0 52.37 48.67">
  <defs>
    <style>
      .cls-1 {
        fill: url(#linear-gradient-4);
      }

      .cls-2 {
        fill: url(#linear-gradient-3);
      }

      .cls-3 {
        fill: url(#linear-gradient-2);
      }

      .cls-4 {
        fill: url(#linear-gradient);
      }
    </style>
    <linearGradient id="linear-gradient" x1="40.48" y1="35.09" x2="34.2" y2="41.36" gradientUnits="userSpaceOnUse">
      <stop offset="0" stop-color="#b29f8a"/>
      <stop offset="1" stop-color="#7f5d41"/>
    </linearGradient>
    <linearGradient id="linear-gradient-2" x1="38.78" y1="12.3" x2="33.68" y2="7.19" xlink:href="#linear-gradient"/>
    <linearGradient id="linear-gradient-3" x1="13.16" y1="24.36" x2="52.37" y2="24.36" gradientUnits="userSpaceOnUse">
      <stop offset="0" stop-color="#b29f8a"/>
      <stop offset="1" stop-color="#b29f8a"/>
    </linearGradient>
    <linearGradient id="linear-gradient-4" x1="21.11" y1="24.31" x2="30.14" y2="24.31" gradientUnits="userSpaceOnUse">
      <stop offset="0" stop-color="#a99580"/>
      <stop offset="1" stop-color="#654428"/>
    </linearGradient>
  </defs>
  <g id="Layer_1-2" data-name="Layer 1">
    <g>
      <path class="cls-4" d="M44.19,32.6v4.54h-5.11l-4.98,4.98-3.22-3.22,5.4-5.39c.59-.59,1.38-.92,2.22-.92h5.69Z"/>
      <path class="cls-3" d="M43.49,11.59v4.55h-4.97c-.84,0-1.62-.33-2.22-.92l-5.41-5.41,3.22-3.22,5,5h4.38Z"/>
      <g>
        <path class="cls-2" d="M52.11,34.53c.49,1.18.22,2.52-.68,3.42l-8.43,8.43c-1.48,1.48-3.44,2.29-5.54,2.29s-4.06-.81-5.54-2.29l-4.25-4.25-12.23-12.23c-3.05-3.05-3.05-8.02,0-11.07L30.89,3.38l1.04-1.04c3.05-3.05,8.02-3.05,11.07,0l8.45,8.44c.9.9,1.17,2.24.68,3.42-.49,1.17-1.62,1.93-2.9,1.93h-5.87v-4.55h2.46l-6.04-6.04c-1.28-1.28-3.36-1.28-4.64,0l-1.04,1.04-3.22,3.22-12.23,12.23c-1.28,1.28-1.28,3.36,0,4.64l16.48,16.48c1.28,1.28,3.37,1.28,4.64,0l6.02-6.02h-1.73v-4.54h5.14c1.27,0,2.41.76,2.9,1.93Z"/>
        <path class="cls-1" d="M26.63,43.11c-1.28,1.28-3.36,1.28-4.64,0L5.51,26.68c-1.28-1.28-1.28-3.36,0-4.64L21.99,5.51c.64-.64,1.48-.96,2.32-.96s1.68.32,2.32.96l1.04,1.04,3.22-3.22-1.04-1.04c-3.05-3.05-8.02-3.05-11.07,0L2.29,18.82c-3.05,3.05-3.05,8.02,0,11.07l16.48,16.43c3.05,3.05,8.02,3.05,11.07,0l1.04-1.04-3.22-3.22-1.04,1.04Z"/>
      </g>
    </g>
  </g>
</svg>